<?xml version="1.0" encoding="UTF-8"?>
<svg id="Layer_1" xmlns="http://www.w3.org/2000/svg" version="1.1" viewBox="0 0 1000 250">
  <!-- Generator: Adobe Illustrator 30.1.0, SVG Export Plug-In . SVG Version: 2.1.1 Build 136)  -->
  <defs>
    <style>
      .st0 {
        fill: #f95741;
      }

      .st1 {
        fill: #fff;
      }

      .st2 {
        fill: #d6bd09;
      }

      .st3 {
        fill: #17c6a5;
      }
    </style>
  </defs>
  <g>
    <path class="st1" d="M605.2,73.4c-26.6,0-48.3,21.3-48.3,47.5v52.9h19.7v-52.9c0-14.8,11.6-27,26.4-27.8h.3c.3,0,.7,0,1,0h1.4c15.3.7,27.8,13.3,27.8,28v52.8h19.7v-52.8c0-26.3-21.5-47.6-48-47.7Z"/>
    <polygon class="st1" points="426.4 75.2 394.3 150 362.3 75.2 341 75.2 383.3 173.8 405.4 173.8 447.6 75.2 426.4 75.2"/>
    <path class="st1" d="M737,164.2l-14.7-13.1-.6.6c-3,2.8-6.9,4.4-11.1,4.4-8.9,0-16.2-7.3-16.2-16.2v-45h39.7v-19.8h-39.7c0,.1,0-31.5,0-31.5h-19.7v31.6h-17.1v19.7h17.1v45c0,19.8,16.1,35.9,35.9,35.9s19-4,25.7-10.8l.6-.7Z"/>
    <path class="st1" d="M956.9,135.4v-60.3h-19.3v9.1l-2.6-1.7c-8.4-5.7-18.2-8.7-28.4-8.7-28.1,0-51,22.9-51,51s22.9,51,51,51,28.4-7.9,33.3-11.2l1.9-1.3.6,1.2c4.2,8,12.1,11.7,25.4,12v-18.9c-7.9-.7-10.9-6.7-10.9-22ZM906.5,156.4c-17.4,0-31.6-14.2-31.6-31.6s14.2-31.6,31.6-31.6,31.6,14.2,31.6,31.6-14.2,31.6-31.6,31.6Z"/>
    <path class="st1" d="M824.1,75.2v52.4c0,14.7-11.5,26.8-26.1,27.5h-.3c-.3,0-.7,0-1,0h-1.4c-15.2-.7-27.5-13.2-27.5-27.7v-52.3h-19.5v52.3c0,26,21.3,47.2,47.6,47.2,10.6,0,20.4-3.5,28.4-9.2v3.4c0,14.7-11.5,26.8-26.1,27.5h-.3c-.3,0-.7,0-1,0h-1.4c-11.3-.6-20.9-7.5-25.2-17h-20.6c4.9,20.9,23.8,36.5,46.3,36.5,26.4,0,47.9-21.1,47.9-47.1v-93.6h-19.5Z"/>
    <path class="st1" d="M495.1,73.4c-28.3,0-51.3,23-51.3,51.3s23,51.3,51.3,51.3c14.2,0,27-5.8,36.2-15.1l-13.5-13.5c-5.8,5.8-13.8,9.5-22.7,9.5-14.4,0-26.6-9.4-30.7-22.5h81.1c.6-3.2,1-6.4,1-9.8,0-28.3-23-51.3-51.3-51.3ZM525.8,114.9h-61.5c4.1-13,16.3-22.5,30.7-22.5,14.4,0,26.6,9.4,30.7,22.5Z"/>
    <path class="st1" d="M293.6,73.4c-28.3,0-51.3,23-51.3,51.3s23,51.3,51.3,51.3c14.2,0,27-5.8,36.2-15.1l-13.5-13.5c-5.8,5.8-13.8,9.5-22.7,9.5-14.4,0-26.6-9.4-30.7-22.5h81.1c.6-3.2,1-6.4,1-9.8,0-28.3-23-51.3-51.3-51.3ZM324.3,114.9h-61.5c4.1-13,16.3-22.5,30.7-22.5,14.4,0,26.6,9.4,30.7,22.5Z"/>
  </g>
  <g>
    <path class="st0" d="M120.6,98.2l19-19.2c10.5-10.5,10.5-27.5,0-38-10.5-10.5-27.5-10.5-38,0-10.5,10.5-10.5,27.5,0,38l19,19.2Z"/>
    <g>
      <path class="st3" d="M181.5,97.4h-38.6c-14.7,0-26.6,11.8-26.8,26.4-.3,15,12.5,27.3,27.6,27.3h38.6c14.7,0,26.6-11.8,26.8-26.4.3-15-12.5-27.3-27.6-27.3Z"/>
      <path class="st2" d="M116.9,101.7l3.7-3.5h-57.2c-12.4,0-23.4,7.1-28.5,18.6-5,11.1-3.1,23.5,4.9,32.4.5.5,59.8,59.9,59.8,59.9,5.1,5.1,11.8,7.9,19,7.9s.4,0,.7,0c7.4-.2,14.2-3.3,19.2-8.8,9.7-10.6,9.1-27.1-1.4-37.5l-20.4-20.7c-13.2-13.4-13.5-34.9.2-48.2Z"/>
    </g>
  </g>
</svg>