<?xml version="1.0" encoding="UTF-8"?>
<svg id="Layer_1" xmlns="http://www.w3.org/2000/svg" version="1.1" viewBox="0 0 500 500">
  <!-- Generator: Adobe Illustrator 30.1.0, SVG Export Plug-In . SVG Version: 2.1.1 Build 136)  -->
  <defs>
    <style>
      .st0 {
        fill: #f95741;
      }

      .st1 {
        fill: #d6bd09;
      }

      .st2 {
        fill: #17c6a5;
      }
    </style>
  </defs>
  <path class="st0" d="M251,186.1l46.5-47.1c25.6-25.6,25.6-67.3,0-93-25.6-25.6-67.3-25.6-93,0-25.6,25.6-25.6,67.3,0,93l46.5,47.1Z"/>
  <g>
    <path class="st2" d="M400.1,184.2h-94.6c-35.9,0-65.1,28.9-65.7,64.6-.6,36.8,30.7,66.9,67.5,66.9h94.6c35.9,0,65.1-28.9,65.7-64.6.6-36.8-30.7-66.9-67.5-66.9Z"/>
    <path class="st1" d="M241.9,194.7l9.1-8.6H111c-30.5,0-57.2,17.4-69.8,45.5-12.2,27.1-7.6,57.5,11.9,79.4,1.2,1.3,146.4,146.6,146.4,146.6,12.5,12.5,28.9,19.3,46.4,19.3s1.1,0,1.6,0c18.1-.4,34.9-8.1,47.1-21.5,23.6-26,22.2-66.3-3.3-91.8l-49.8-50.6c-32.3-32.8-33-85.4.5-118.2Z"/>
  </g>
</svg>